#Comment line ignore any data following # character 
#Hierarchical Translation and Rotation (.htr) file 
[Header]	
#Header keywords are followed by a single value 
FileType HTR		#Single word string
DataType HTRS		#Translation followed by rotation and scale data
FileVersion 1		#integer
NumSegments 64		#integer
NumFrames 3		#integer
DataFrameRate 30		#integer, data frame rate in this file
EulerRotationOrder ZYX
CalibrationUnits mm
RotationUnits Degrees
GlobalAxisofGravity Y
BoneLengthAxis Y
ScaleFactor 1.00
[SegmentNames&Hierarchy]
#CHILD	PARENT
Pinger_Root GLOBAL
Pelvis Pinger_Root
L_Hip Pelvis
R_Hip Pelvis
Rear_Leg01 Pelvis
Spine1 Pelvis
L_Leg01 L_Hip
L_Leg02 L_Leg01
L_Leg03 L_Leg02
L_Foot L_Leg03
L_Toe1_01 L_Foot
L_Toe2_01 L_Foot
L_Toe3_01 L_Foot
planeAlignerLeft L_Foot
L_Toe1_02 L_Toe1_01
L_Toe1_03 L_Toe1_02
L_Toe2_02 L_Toe2_01
L_Toe2_03 L_Toe2_02
L_Toe3_02 L_Toe3_01
L_Toe3_03 L_Toe3_02
planeLockWeightLeft planeAlignerLeft
R_Leg01 R_Hip
R_Leg02 R_Leg01
R_Leg03 R_Leg02
R_Foot R_Leg03
planeAlignerRight R_Foot
R_Toe1_01 R_Foot
R_Toe2_01 R_Foot
R_Toe3_01 R_Foot
planeLockWeightRight planeAlignerRight
R_Toe1_02 R_Toe1_01
R_Toe1_03 R_Toe1_02
R_Toe2_02 R_Toe2_01
R_Toe2_03 R_Toe2_02
R_Toe3_02 R_Toe3_01
R_Toe3_03 R_Toe3_02
Rear_Leg02 Rear_Leg01
Rear_Leg03 Rear_Leg02
Rear_Leg04 Rear_Leg03
Rear_Foot Rear_Leg04
planeAlignerCenter Rear_Foot
Rear_Toe1_01 Rear_Foot
Rear_Toe2_01 Rear_Foot
Rear_Toe3_01 Rear_Foot
planeLockWeightCenter planeAlignerCenter
Rear_Toe1_02 Rear_Toe1_01
Rear_Toe1_03 Rear_Toe1_02
Rear_Toe2_02 Rear_Toe2_01
Rear_Toe2_03 Rear_Toe2_02
Rear_Toe3_02 Rear_Toe3_01
Rear_Toe3_03 Rear_Toe3_02
Back_Bone Spine1
Head Spine1
Motor_Bone Back_Bone
Ping_Mechanism Back_Bone
BN_LookIK Head
bottomMouth Head
L_Mouth01 Head
L_mouthFront Head
mouthGun Head
R_Mouth01 Head
R_mouthFront Head
TopMouth Head
weapon_bone Head
[BasePosition]
#SegmentName Tx, Ty, Tz, Rx, Ry, Rz, BoneLength
Pinger_Root 0.000000 0.000000 0.000000 -90.000000 0.000000 0.000000 10.000000 
Pelvis 0.000000 0.000000 0.000000 0.000000 0.000000 0.000000 10.000000 
L_Hip 0.000000 0.000000 0.000000 0.000000 0.000000 0.000000 10.000000 
R_Hip 0.000000 0.000000 0.000000 0.000000 0.000000 0.000000 10.000000 
Rear_Leg01 0.000000 0.000000 0.000000 0.000000 0.000000 0.000000 10.000000 
Spine1 0.000000 0.000000 0.000000 0.000000 0.000000 0.000000 10.000000 
L_Leg01 0.000000 0.000000 0.000000 0.000000 0.000000 0.000000 10.000000 
L_Leg02 0.000000 0.000000 0.000000 0.000000 0.000000 0.000000 10.000000 
L_Leg03 0.000000 0.000000 0.000000 0.000000 0.000000 0.000000 10.000000 
L_Foot 0.000000 0.000000 0.000000 0.000000 0.000000 0.000000 10.000000 
L_Toe1_01 0.000000 0.000000 0.000000 0.000000 0.000000 0.000000 10.000000 
L_Toe2_01 0.000000 0.000000 0.000000 0.000000 0.000000 0.000000 10.000000 
L_Toe3_01 0.000000 0.000000 0.000000 0.000000 0.000000 0.000000 10.000000 
planeAlignerLeft 0.000000 0.000000 0.000000 0.000000 0.000000 0.000000 10.000000 
L_Toe1_02 0.000000 0.000000 0.000000 0.000000 0.000000 0.000000 10.000000 
L_Toe1_03 0.000000 0.000000 0.000000 0.000000 0.000000 0.000000 10.000000 
L_Toe2_02 0.000000 0.000000 0.000000 0.000000 0.000000 0.000000 10.000000 
L_Toe2_03 0.000000 0.000000 0.000000 0.000000 0.000000 0.000000 10.000000 
L_Toe3_02 0.000000 0.000000 0.000000 0.000000 0.000000 0.000000 10.000000 
L_Toe3_03 0.000000 0.000000 0.000000 0.000000 0.000000 0.000000 10.000000 
planeLockWeightLeft 0.000000 0.000000 0.000000 0.000000 0.000000 0.000000 10.000000 
R_Leg01 0.000000 0.000000 0.000000 0.000000 0.000000 0.000000 10.000000 
R_Leg02 0.000000 0.000000 0.000000 0.000000 0.000000 0.000000 10.000000 
R_Leg03 0.000000 0.000000 0.000000 0.000000 0.000000 0.000000 10.000000 
R_Foot 0.000000 0.000000 0.000000 0.000000 0.000000 0.000000 10.000000 
planeAlignerRight 0.000000 0.000000 0.000000 0.000000 0.000000 0.000000 10.000000 
R_Toe1_01 0.000000 0.000000 0.000000 0.000000 0.000000 0.000000 10.000000 
R_Toe2_01 0.000000 0.000000 0.000000 0.000000 0.000000 0.000000 10.000000 
R_Toe3_01 0.000000 0.000000 0.000000 0.000000 0.000000 0.000000 10.000000 
planeLockWeightRight 0.000000 0.000000 0.000000 0.000000 0.000000 0.000000 10.000000 
R_Toe1_02 0.000000 0.000000 0.000000 0.000000 0.000000 0.000000 10.000000 
R_Toe1_03 0.000000 0.000000 0.000000 0.000000 0.000000 0.000000 10.000000 
R_Toe2_02 0.000000 0.000000 0.000000 0.000000 0.000000 0.000000 10.000000 
R_Toe2_03 0.000000 0.000000 0.000000 0.000000 0.000000 0.000000 10.000000 
R_Toe3_02 0.000000 0.000000 0.000000 0.000000 0.000000 0.000000 10.000000 
R_Toe3_03 0.000000 0.000000 0.000000 0.000000 0.000000 0.000000 10.000000 
Rear_Leg02 0.000000 0.000000 0.000000 0.000000 0.000000 0.000000 10.000000 
Rear_Leg03 0.000000 0.000000 0.000000 0.000000 0.000000 0.000000 10.000000 
Rear_Leg04 0.000000 0.000000 0.000000 0.000000 0.000000 0.000000 10.000000 
Rear_Foot 0.000000 0.000000 0.000000 0.000000 0.000000 0.000000 10.000000 
planeAlignerCenter 0.000000 0.000000 0.000000 0.000000 0.000000 0.000000 10.000000 
Rear_Toe1_01 0.000000 0.000000 0.000000 0.000000 0.000000 0.000000 10.000000 
Rear_Toe2_01 0.000000 0.000000 0.000000 0.000000 0.000000 0.000000 10.000000 
Rear_Toe3_01 0.000000 0.000000 0.000000 0.000000 0.000000 0.000000 10.000000 
planeLockWeightCenter 0.000000 0.000000 0.000000 0.000000 0.000000 0.000000 10.000000 
Rear_Toe1_02 0.000000 0.000000 0.000000 0.000000 0.000000 0.000000 10.000000 
Rear_Toe1_03 0.000000 0.000000 0.000000 0.000000 0.000000 0.000000 10.000000 
Rear_Toe2_02 0.000000 0.000000 0.000000 0.000000 0.000000 0.000000 10.000000 
Rear_Toe2_03 0.000000 0.000000 0.000000 0.000000 0.000000 0.000000 10.000000 
Rear_Toe3_02 0.000000 0.000000 0.000000 0.000000 0.000000 0.000000 10.000000 
Rear_Toe3_03 0.000000 0.000000 0.000000 0.000000 0.000000 0.000000 10.000000 
Back_Bone 0.000000 0.000000 0.000000 0.000000 0.000000 0.000000 10.000000 
Head 0.000000 0.000000 0.000000 0.000000 0.000000 0.000000 10.000000 
Motor_Bone 0.000000 0.000000 0.000000 0.000000 0.000000 0.000000 10.000000 
Ping_Mechanism 0.000000 0.000000 0.000000 0.000000 0.000000 0.000000 10.000000 
BN_LookIK 0.000000 0.000000 0.000000 0.000000 0.000000 0.000000 10.000000 
bottomMouth 0.000000 0.000000 0.000000 0.000000 0.000000 0.000000 10.000000 
L_Mouth01 0.000000 0.000000 0.000000 0.000000 0.000000 0.000000 10.000000 
L_mouthFront 0.000000 0.000000 0.000000 0.000000 0.000000 0.000000 10.000000 
mouthGun 0.000000 0.000000 0.000000 0.000000 0.000000 0.000000 10.000000 
R_Mouth01 0.000000 0.000000 0.000000 0.000000 0.000000 0.000000 10.000000 
R_mouthFront 0.000000 0.000000 0.000000 0.000000 0.000000 0.000000 10.000000 
TopMouth 0.000000 0.000000 0.000000 0.000000 0.000000 0.000000 10.000000 
weapon_bone 0.000000 0.000000 0.000000 0.000000 0.000000 0.000000 10.000000 
#Beginning of Data. Separated by tabs
#Fr	Tx	Ty	Tz	Rx	Ry	Rz	SF
[Pinger_Root]
40 0.000000 0.000000 0.000000 -0.000075 -0.000000 -0.000020 0.000000
41 0.000000 0.000000 0.000000 -0.000075 -0.000000 -0.000020 0.000000
42 0.000000 0.000000 0.000000 -0.000075 -0.000000 -0.000020 0.000000
[Pelvis]
40 -650.008484 632.183167 4187.662109 -117.311996 -80.365425 109.460869 4284.703125
41 -605.403687 671.073181 4180.583008 -109.006607 -80.740784 101.268967 4277.163086
42 -558.005005 708.412964 4175.668945 -103.397247 -81.046715 95.735138 4271.935059
[L_Hip]
40 5.766392 125.831482 872.656799 160.158691 -45.484905 122.312202 881.701050
41 5.766392 125.831482 872.656799 160.158691 -45.484905 122.312202 881.701050
42 5.766392 125.831482 872.656799 160.158691 -45.484905 122.312202 881.701050
[R_Hip]
40 5.765438 125.836372 -872.654907 38.087841 49.812687 125.703735 881.699829
41 5.765438 125.836372 -872.654907 38.087841 49.812687 125.703735 881.699829
42 5.765438 125.836372 -872.654907 38.087841 49.812687 125.703735 881.699829
[Rear_Leg01]
40 -192.298416 -925.602966 -0.001907 170.196671 8.797063 -167.620712 945.367432
41 -192.298416 -925.602966 -0.001907 170.671860 9.490429 -167.097595 945.367432
42 -192.298416 -925.602966 -0.001907 170.977875 9.732001 -166.444626 945.367432
[Spine1]
40 290.604584 5.007505 0.000477 8.285859 -18.584364 7.908417 290.647736
41 290.604584 5.007505 0.000477 5.095546 -18.453196 10.511562 290.647736
42 290.604584 5.007505 0.000477 3.495357 -17.534657 12.426733 290.647736
[L_Leg01]
40 761.932007 -0.002384 -0.069261 9.977295 -23.245552 12.507457 761.932068
41 761.932007 -0.002384 -0.069261 9.816240 -23.390858 11.013617 761.932068
42 761.932007 -0.002384 -0.069261 10.052620 -23.348848 9.842538 761.932068
[L_Leg02]
40 1441.140503 -0.000954 -0.000715 4.679193 -0.173423 -147.734039 1441.140503
41 1441.140503 -0.000954 -0.000715 4.641333 -0.173702 -147.396942 1441.140503
42 1441.140503 -0.000954 -0.000715 4.626888 -0.174998 -147.261673 1441.140503
[L_Leg03]
40 1686.963989 -0.000715 -0.000954 -0.036432 0.017067 120.167587 1686.963989
41 1686.963989 -0.000715 -0.000954 -0.036434 0.017061 120.149902 1686.963989
42 1686.963989 -0.000715 -0.000954 -0.036437 0.017056 120.132225 1686.963989
[L_Foot]
40 3041.570068 -30.715107 11.297464 11.187264 11.970529 57.930962 3041.746094
41 3041.570068 -30.715107 11.297464 10.760715 12.022447 58.479198 3041.746094
42 3041.570068 -30.715107 11.297464 10.116080 12.048629 58.871403 3041.746094
[L_Toe1_01]
40 -188.216690 -224.732346 -21.137953 93.220673 -13.231620 -172.577591 293.899567
41 -188.216690 -224.732346 -21.137953 93.383904 -12.889292 -173.119797 293.899567
42 -188.216690 -224.732346 -21.137953 93.503708 -12.456317 -173.404785 293.899567
[L_Toe2_01]
40 200.746536 -219.926590 148.838394 -88.453384 -35.585175 -49.804756 332.896027
41 200.746536 -219.926590 148.838394 -88.687653 -34.916801 -49.688179 332.896027
42 200.746536 -219.926590 148.838394 -88.832115 -34.198017 -49.850769 332.896027
[L_Toe3_01]
40 188.832520 -219.859131 -191.078659 -96.396606 7.715768 -57.317581 347.140900
41 188.832520 -219.859131 -191.078659 -96.541313 8.187807 -57.815559 347.140900
42 188.832520 -219.859131 -191.078659 -96.690315 8.658583 -58.315342 347.140900
[planeAlignerLeft]
40 0.812531 -811.448792 -0.314951 0.000000 -90.000000 -90.001900 811.449280
41 0.812531 -811.448792 -0.314951 0.000000 -90.000000 -90.001900 811.449280
42 0.812531 -811.448792 -0.314951 0.000000 -90.000000 -90.001900 811.449280
[L_Toe1_02]
40 413.761139 0.000477 0.000000 0.001398 -24.113014 0.001398 413.761139
41 413.761139 0.000477 0.000000 0.001392 -24.922798 0.001392 413.761139
42 413.761139 0.000477 0.000000 0.001389 -25.373770 0.001389 413.761139
[L_Toe1_03]
40 464.317322 0.000358 -0.000089 0.002602 36.376778 0.002602 464.317322
41 464.317322 0.000358 -0.000089 0.002788 40.209183 0.002788 464.317322
42 464.317322 0.000358 -0.000089 0.002949 43.093071 0.002949 464.317322
[L_Toe2_02]
40 342.235809 -0.000477 0.000238 0.001187 -72.874634 0.001187 342.235809
41 342.235809 -0.000477 0.000238 0.001187 -72.725258 0.001187 342.235809
42 342.235809 -0.000477 0.000238 0.001187 -72.575897 0.001187 342.235809
[L_Toe2_03]
40 420.210846 -0.000715 0.000000 0.009272 86.617828 0.011021 420.210846
41 420.210846 -0.000715 0.000000 0.034173 86.063637 0.034173 420.210846
42 420.210846 -0.000715 0.000000 0.031701 85.756744 0.031701 420.210846
[L_Toe3_02]
40 329.270111 0.000954 0.000000 0.004677 -83.990417 0.004677 329.270111
41 329.270111 0.000954 0.000000 0.004677 -83.871895 0.004677 329.270111
42 329.270111 0.000954 0.000000 0.004677 -83.753273 0.004677 329.270111
[L_Toe3_03]
40 439.137451 -0.001907 0.000954 179.992096 58.037498 179.999374 439.137451
41 439.137451 -0.001907 0.000954 179.991913 59.431648 179.999176 439.137451
42 439.137451 -0.001907 0.000954 179.991699 61.030781 179.998917 439.137451
[planeLockWeightLeft]
40 -0.000954 0.000238 -0.000305 -0.011826 -0.004376 0.005620 0.001029
41 -0.000954 0.000238 -0.000305 -0.011826 -0.004376 0.005620 0.001029
42 -0.000954 0.000238 -0.000305 -0.011826 -0.004376 0.005620 0.001029
[R_Leg01]
40 761.455627 -0.001907 -0.000358 121.722618 -8.336124 29.031961 761.455688
41 761.455627 -0.001907 -0.000358 121.488396 -9.335648 26.936398 761.455688
42 761.455627 -0.001907 -0.000358 121.277306 -9.968616 25.772661 761.455688
[R_Leg02]
40 1441.140625 0.000000 -0.000238 -0.749738 0.001545 -102.795723 1441.140625
41 1441.140625 0.000000 -0.000238 -0.933817 -0.049870 -107.845924 1441.140625
42 1441.140625 0.000000 -0.000238 -1.070370 -0.100119 -111.636383 1441.140625
[R_Leg03]
40 1686.963989 0.000954 0.001431 0.061927 -0.031744 126.939560 1686.963989
41 1686.963989 0.000954 0.001431 0.068122 -0.034830 128.399811 1686.963989
42 1686.963989 0.000954 0.001431 0.069907 -0.039933 129.463120 1686.963989
[R_Foot]
40 3041.560059 -30.531288 -11.204481 9.590538 -23.838419 40.089222 3041.734131
41 3041.560059 -30.531288 -11.204481 9.437009 -23.884806 42.032806 3041.734131
42 3041.560059 -30.531288 -11.204481 9.035349 -23.958418 43.725971 3041.734131
[planeAlignerRight]
40 -0.635147 -812.270569 -0.364304 0.000000 -89.960434 -90.005180 812.270874
41 -0.635147 -812.270569 -0.364304 0.000000 -89.960434 -90.005180 812.270874
42 -0.635147 -812.270569 -0.364304 0.000000 -89.960434 -90.005180 812.270874
[R_Toe1_01]
40 -188.383347 -224.864899 21.052242 77.128731 -3.726224 -172.609283 294.101532
41 -188.383347 -224.864899 21.052242 77.158760 -3.708783 -173.485580 294.101532
42 -188.383347 -224.864899 21.052242 77.188499 -3.690884 -174.361908 294.101532
[R_Toe2_01]
40 200.637817 -220.002121 -148.787384 -90.296997 29.460840 -58.497120 332.857574
41 200.637817 -220.002121 -148.787384 -89.999283 29.808725 -57.752411 332.857574
42 200.637817 -220.002121 -148.787384 -89.695282 30.153210 -57.002983 332.857574
[R_Toe3_01]
40 188.606735 -220.092957 191.126343 -71.862686 -10.640059 -74.776825 347.192566
41 188.606735 -220.092957 191.126343 -71.884384 -10.771279 -74.091248 347.192566
42 188.606735 -220.092957 191.126343 -71.907669 -10.902243 -73.405312 347.192566
[planeLockWeightRight]
40 -0.000477 0.000000 0.000000 -0.011823 -0.004379 -0.000027 0.000477
41 -0.000477 0.000000 0.000000 -0.011823 -0.004379 -0.000027 0.000477
42 -0.000477 0.000000 0.000000 -0.011823 -0.004379 -0.000027 0.000477
[R_Toe1_02]
40 413.762085 0.000477 -0.000119 0.000006 -25.434675 -0.000005 413.762085
41 413.762085 0.000477 -0.000119 0.000006 -25.434675 -0.000005 413.762085
42 413.762085 0.000477 -0.000119 0.000006 -25.434675 -0.000005 413.762085
[R_Toe1_03]
40 464.317810 0.000000 0.001088 0.007671 72.399994 0.007671 464.317810
41 464.317810 0.000000 0.001088 0.007988 73.101410 0.007988 464.317810
42 464.317810 0.000000 0.001088 0.008331 73.802811 0.008331 464.317810
[R_Toe2_02]
40 342.234741 -0.000954 0.000238 0.001196 -67.906113 0.001196 342.234741
41 342.234741 -0.000954 0.000238 0.001195 -68.341331 0.001195 342.234741
42 342.234741 -0.000954 0.000238 0.001194 -68.848000 0.001194 342.234741
[R_Toe2_03]
40 420.210846 0.000715 -0.000268 0.008890 74.827629 0.008890 420.210846
41 420.210846 0.000715 -0.000268 0.009586 75.933807 0.009586 420.210846
42 420.210846 0.000715 -0.000268 0.010400 77.040138 0.010400 420.210846
[R_Toe3_02]
40 329.270355 -0.000477 -0.000954 0.001190 -70.689095 0.001190 329.270355
41 329.270355 -0.000477 -0.000954 0.001189 -71.551819 0.001189 329.270355
42 329.270355 -0.000477 -0.000954 0.001188 -72.414581 0.001188 329.270355
[R_Toe3_03]
40 439.137939 0.000238 0.001431 0.008904 74.852516 0.008904 439.137939
41 439.137939 0.000238 0.001431 0.010022 76.549919 0.010022 439.137939
42 439.137939 0.000238 0.001431 0.011803 78.585442 0.011803 439.137939
[Rear_Leg02]
40 1162.777710 -0.029802 0.005960 1.260396 -2.697661 -136.949142 1162.777710
41 1162.777710 -0.029802 0.005960 1.229506 -2.712442 -136.271439 1162.777710
42 1162.777710 -0.029802 0.005960 1.198442 -2.726857 -135.593719 1162.777710
[Rear_Leg03]
40 607.192505 -0.013351 -0.073195 0.010456 -0.005179 69.054283 607.192505
41 607.192505 -0.013351 -0.073195 0.010465 -0.005161 68.853973 607.192505
42 607.192505 -0.013351 -0.073195 0.010474 -0.005143 68.653648 607.192505
[Rear_Leg04]
40 995.874512 -0.020504 -0.011921 -0.040353 -0.018460 68.196625 995.874573
41 995.874512 -0.020504 -0.011921 -0.040274 -0.018632 67.706795 995.874573
42 995.874512 -0.020504 -0.011921 -0.040193 -0.018804 67.216957 995.874573
[Rear_Foot]
40 3096.176270 -0.067472 -0.041425 -19.048944 82.196587 171.668732 3096.176270
41 3096.176270 -0.067472 -0.041425 -20.729820 82.841660 170.443848 3096.176270
42 3096.176270 -0.067472 -0.041425 -22.696487 83.481392 168.932816 3096.176270
[planeAlignerCenter]
40 0.350077 0.966311 -838.790894 0.000009 0.000003 -179.999985 838.791565
41 0.350077 0.966311 -838.790894 0.000009 0.000003 -179.999985 838.791565
42 0.350077 0.966311 -838.790894 0.000009 0.000003 -179.999985 838.791565
[Rear_Toe1_01]
40 0.653352 83.966492 -371.173737 0.288091 41.914127 90.413170 380.553192
41 0.653352 83.966492 -371.173737 0.288091 41.914127 90.413170 380.553192
42 0.653352 83.966492 -371.173737 0.288091 41.914127 90.413170 380.553192
[Rear_Toe2_01]
40 178.200760 -294.826019 -362.060547 -7.196267 34.406261 -66.271294 499.765686
41 178.200760 -294.826019 -362.060547 -7.196267 34.406261 -66.271294 499.765686
42 178.200760 -294.826019 -362.060547 -7.196267 34.406261 -66.271294 499.765686
[Rear_Toe3_01]
40 -153.359680 -308.780914 -362.060852 3.289418 33.518005 -112.540970 499.952881
41 -153.359680 -308.780914 -362.060852 3.289418 33.518005 -112.540970 499.952881
42 -153.359680 -308.780914 -362.060852 3.289418 33.518005 -112.540970 499.952881
[planeLockWeightCenter]
40 -0.000062 0.000238 0.000000 -0.011814 -0.004373 -0.000015 0.000246
41 -0.000062 0.000238 0.000000 -0.011814 -0.004373 -0.000015 0.000246
42 -0.000062 0.000238 0.000000 -0.011814 -0.004373 -0.000015 0.000246
[Rear_Toe1_02]
40 379.707825 0.194073 0.000477 -0.000242 -31.676744 0.006934 379.707855
41 379.707825 0.194073 0.000477 -0.000242 -31.676744 0.006934 379.707855
42 379.707825 0.194073 0.000477 -0.000242 -31.676744 0.006934 379.707855
[Rear_Toe1_03]
40 500.129700 0.165701 0.000119 -0.000103 51.902466 0.007295 500.129761
41 500.129700 0.165701 0.000119 -0.000103 51.902485 0.007295 500.129761
42 500.129700 0.165701 0.000119 -0.000103 51.902481 0.007295 500.129761
[Rear_Toe2_02]
40 340.494507 0.000238 -0.000954 0.001192 -69.854523 0.001192 340.494507
41 340.494507 0.000238 -0.000954 0.001192 -69.854523 0.001192 340.494507
42 340.494507 0.000238 -0.000954 0.001192 -69.854523 0.001192 340.494507
[Rear_Toe2_03]
40 433.103577 0.000000 0.000238 0.006696 69.810326 0.006696 433.103546
41 433.103577 0.000000 0.000238 0.006696 69.810326 0.006696 433.103546
42 433.103577 0.000000 0.000238 0.006696 69.810326 0.006696 433.103546
[Rear_Toe3_02]
40 340.494141 -0.000358 -0.000477 0.008288 -67.274704 -0.009460 340.494171
41 340.494141 -0.000358 -0.000477 0.008288 -67.274704 -0.009460 340.494171
42 340.494141 -0.000358 -0.000477 0.008288 -67.274704 -0.009460 340.494171
[Rear_Toe3_03]
40 433.103577 0.001431 -0.000238 -0.000972 65.958984 -0.004547 433.103546
41 433.103577 0.001431 -0.000238 -0.000972 65.958984 -0.004547 433.103546
42 433.103577 0.001431 -0.000238 -0.000972 65.958984 -0.004547 433.103546
[Back_Bone]
40 1312.175781 -701.934692 0.000954 0.000023 -0.000007 -85.606667 1488.125488
41 1312.175781 -701.934692 0.000954 0.000023 -0.000007 -85.606667 1488.125488
42 1312.175781 -701.934692 0.000954 0.000023 -0.000007 -85.606667 1488.125488
[Head]
40 1406.159424 809.709290 0.001431 0.236299 -0.922212 8.026668 1622.625488
41 1406.159424 809.709290 0.001431 0.203327 -0.999142 7.990286 1622.625488
42 1406.159424 809.709290 0.001431 0.170403 -1.076093 7.953945 1622.625488
[Motor_Bone]
40 1158.364380 -417.834747 0.000477 -0.000105 0.000046 -105.985291 1231.419434
41 1158.364380 -417.834747 0.000477 -0.000105 0.000046 -105.985291 1231.419434
42 1158.364380 -417.834747 0.000477 -0.000105 0.000046 -105.985291 1231.419434
[Ping_Mechanism]
40 1215.237793 -433.297150 0.000954 0.000103 -0.000053 82.120995 1290.174072
41 1215.237793 -433.297150 0.000954 0.000103 -0.000053 82.120995 1290.174072
42 1215.237793 -433.297150 0.000954 0.000103 -0.000053 82.120995 1290.174072
[BN_LookIK]
40 193.241119 1380.371704 -0.002861 0.000000 89.965736 -31.038179 1393.832153
41 193.241119 1380.371704 -0.002861 0.000000 89.965736 -31.038179 1393.832153
42 193.241119 1380.371704 -0.002861 0.000000 89.965736 -31.038179 1393.832153
[bottomMouth]
40 -435.092926 615.759399 -0.000954 -0.000022 0.000016 73.527184 753.966492
41 -435.092926 615.759399 -0.000954 -0.000022 0.000016 73.527184 753.966492
42 -435.092926 615.759399 -0.000954 -0.000022 0.000016 73.527184 753.966492
[L_Mouth01]
40 554.440979 7.658243 838.222046 150.204178 23.759130 109.605339 1005.027161
41 554.440979 7.658243 838.222046 150.204178 23.759130 109.605339 1005.027161
42 554.440979 7.658243 838.222046 150.204178 23.759130 109.605339 1005.027161
[L_mouthFront]
40 551.629089 934.514771 339.150421 0.000081 2.804060 79.119301 1136.941284
41 551.629089 934.514771 339.150421 0.000081 2.804060 79.119301 1136.941284
42 551.629089 934.514771 339.150421 0.000081 2.804060 79.119301 1136.941284
[mouthGun]
40 55.332661 1627.420898 0.000000 0.000023 0.000009 -11.038128 1628.361328
41 55.332661 1627.420898 0.000000 0.000023 0.000009 -11.038128 1628.361328
42 55.332661 1627.420898 0.000000 0.000023 0.000009 -11.038128 1628.361328
[R_Mouth01]
40 554.442383 7.659197 -838.223938 29.795891 -23.759109 109.605331 1005.029541
41 554.442383 7.659197 -838.223938 29.795891 -23.759109 109.605331 1005.029541
42 554.442383 7.659197 -838.223938 29.795891 -23.759109 109.605331 1005.029541
[R_mouthFront]
40 551.629089 934.514282 -339.151367 0.000029 -2.803930 79.119133 1136.941162
41 551.629089 934.514282 -339.151367 0.000029 -2.803930 79.119133 1136.941162
42 551.629089 934.514282 -339.151367 0.000029 -2.803930 79.119133 1136.941162
[TopMouth]
40 461.269867 -56.106091 -0.008583 -0.000059 -0.000268 92.025169 464.669525
41 461.269867 -56.106091 -0.008583 -0.000059 -0.000268 92.025169 464.669525
42 461.269867 -56.106091 -0.008583 -0.000059 -0.000268 92.025169 464.669525
[weapon_bone]
40 -987.239868 1448.372803 0.001431 0.000000 89.965736 -31.038221 1752.833740
41 -987.239868 1448.372803 0.001431 0.000000 89.965736 -31.038221 1752.833740
42 -987.239868 1448.372803 0.001431 0.000000 89.965736 -31.038221 1752.833740
